<svg width="172" height="32" viewBox="0 0 172 32" fill="none" xmlns="http://www.w3.org/2000/svg">
<g clip-path="url(#clip0_2046_22894)">
<path d="M52.0001 22.7549H52.6601V24.2949L54.2001 22.7549H54.9901L53.6251 24.1199L55.1651 25.6599H54.3751L53.2301 24.5149L52.6601 25.0849V25.6549H52.0001V22.7549Z" fill="#CCCCCC"/>
<path d="M57.6751 23.345C57.6751 22.75 58.2051 22.75 58.7301 22.75H59.9151C60.4451 22.75 60.9701 22.75 60.9701 23.345V25.06C60.9701 25.655 60.4401 25.655 59.9151 25.655H58.7301C58.2001 25.655 57.6751 25.655 57.6751 25.06V23.345ZM58.6001 25.28H60.0501C60.1801 25.28 60.3151 25.28 60.3151 25.125V23.28C60.3151 23.125 60.1851 23.125 60.0501 23.125H58.6001C58.4701 23.125 58.3351 23.125 58.3351 23.28V25.125C58.3351 25.28 58.4651 25.28 58.6001 25.28Z" fill="#CCCCCC"/>
<path d="M63.7051 23.345C63.7051 22.75 64.2351 22.75 64.7601 22.75H66.7851V23.125H64.6301C64.5001 23.125 64.3651 23.125 64.3651 23.28V25.125C64.3651 25.28 64.4951 25.28 64.6301 25.28H66.7851V25.655H64.7601C64.2301 25.655 63.7051 25.655 63.7051 25.06V23.345Z" fill="#CCCCCC"/>
<path d="M69.5101 22.7549H70.3901L71.5101 24.9999L72.6301 22.7549H73.5101V25.6599H72.8501V23.4999L71.7701 25.6549H71.2401L70.1701 23.4999V25.6549H69.5101V22.7549Z" fill="#CCCCCC"/>
<path d="M76.2452 22.7549H76.9052V24.9099L78.8402 22.7549H79.5452V25.6599H78.8852V23.4999L76.9502 25.6549H76.2452V22.7549Z" fill="#CCCCCC"/>
<path d="M82.275 22.7549H82.935V23.9449C82.935 24.0999 83.065 24.0999 83.2 24.0999H84.915V22.7599H85.575V25.6649H84.915V24.4749H83.33C82.8 24.4749 82.275 24.4749 82.275 23.8799V22.7549Z" fill="#CCCCCC"/>
<path d="M88.305 22.7549H91.385V23.1299H88.965V23.8549H91.165V24.2299H88.965V25.2849H91.385V25.6599H88.305V22.7549Z" fill="#CCCCCC"/>
<path d="M94.1102 23.345C94.1102 22.75 94.6402 22.75 95.1652 22.75H97.1902V23.125H95.0352C94.9052 23.125 94.7702 23.125 94.7702 23.28V25.125C94.7702 25.28 94.9002 25.28 95.0352 25.28H97.1902V25.655H95.1652C94.6352 25.655 94.1102 25.655 94.1102 25.06V23.345Z" fill="#CCCCCC"/>
<path d="M99.92 22.7549H100.58V24.2949L102.12 22.7549H102.91L101.545 24.1199L103.085 25.6599H102.295L101.15 24.5149L100.58 25.0849V25.6549H99.92V22.7549Z" fill="#CCCCCC"/>
<path d="M105.595 23.345C105.595 22.75 106.125 22.75 106.65 22.75H107.84C108.37 22.75 108.895 22.75 108.895 23.345V25.06C108.895 25.655 108.365 25.655 107.84 25.655H106.65C106.12 25.655 105.595 25.655 105.595 25.06V23.345ZM106.52 25.28H107.97C108.1 25.28 108.235 25.28 108.235 25.125V23.28C108.235 23.125 108.105 23.125 107.97 23.125H106.52C106.39 23.125 106.255 23.125 106.255 23.28V25.125C106.255 25.28 106.39 25.28 106.52 25.28Z" fill="#CCCCCC"/>
<path d="M111.625 22.7549H114.705V23.1299H112.285V23.8549H114.485V24.2299H112.285V25.2849H114.705V25.6599H111.625V22.7549Z" fill="#CCCCCC"/>
<path d="M122.54 22.7549H123.375L124.825 25.6599H124.165L123.705 24.7349H122.21L121.75 25.6599H121.09L122.54 22.7549ZM123.53 24.3799L122.96 23.2349L122.39 24.3799H123.53Z" fill="#CCCCCC"/>
<path d="M127.335 22.7549H130.415V23.1299H127.995V25.6599H127.335V22.7549Z" fill="#CCCCCC"/>
<path d="M132.965 22.7549H136.045V23.1299H133.625V23.8549H135.825V24.2299H133.625V25.2849H136.045V25.6599H132.965V22.7549Z" fill="#CCCCCC"/>
<path d="M138.775 22.7549H139.435V23.8549H141.415V22.7549H142.075V25.6599H141.415V24.2299H139.435V25.6599H138.775V22.7549Z" fill="#CCCCCC"/>
<path d="M144.63 22.7549H148.28V23.1299H146.785V25.6599H146.125V23.1299H144.63V22.7549Z" fill="#CCCCCC"/>
<path d="M150.835 23.345C150.835 22.75 151.365 22.75 151.89 22.75H153.915V23.125H151.76C151.63 23.125 151.495 23.125 151.495 23.28V25.125C151.495 25.28 151.625 25.28 151.76 25.28H153.915V25.655H151.89C151.365 25.655 150.835 25.655 150.835 25.06V23.345Z" fill="#CCCCCC"/>
<path d="M156.465 22.7549H160.115V23.1299H158.62V25.6599H157.96V23.1299H156.465V22.7549Z" fill="#CCCCCC"/>
<path d="M162.67 22.7549H164.87C165.395 22.7549 165.925 22.7549 165.925 23.3499V23.5899C165.925 23.8549 165.75 23.9849 165.575 24.0299C165.75 24.0749 165.97 24.1599 165.97 24.4699V25.0649C165.97 25.6599 165.44 25.6599 164.915 25.6599H162.67V22.7549ZM165 23.8499C165.13 23.8499 165.265 23.8499 165.265 23.6949V23.2749C165.265 23.1199 165.135 23.1199 165 23.1199H163.33V23.8449H165V23.8499ZM165.045 25.2799C165.175 25.2799 165.31 25.2799 165.31 25.1249V24.3799C165.31 24.2249 165.18 24.2249 165.045 24.2249H163.33V25.2799H165.045Z" fill="#CCCCCC"/>
<path d="M168.7 23.345C168.7 22.75 169.23 22.75 169.755 22.75H170.945C171.47 22.75 172 22.75 172 23.345V25.06C172 25.655 171.47 25.655 170.945 25.655H169.755C169.23 25.655 168.7 25.655 168.7 25.06V23.345ZM169.625 25.28H171.075C171.205 25.28 171.34 25.28 171.34 25.125V23.28C171.34 23.125 171.21 23.125 171.075 23.125H169.625C169.495 23.125 169.36 23.125 169.36 23.28V25.125C169.36 25.28 169.49 25.28 169.625 25.28Z" fill="#CCCCCC"/>
<path d="M37.9349 30.4249L37.0249 31.9999H28.9599C28.5849 31.9999 28.2399 31.7999 28.0499 31.4749L26.7299 29.1849C26.5449 28.8599 26.1999 28.6599 25.8199 28.6599H12.4949L10.8699 31.4749C10.6849 31.7999 10.3399 31.9999 9.9649 31.9999C9.6399 31.9949 9.2099 31.9949 8.7149 31.9949L23.7799 5.8999L24.5549 7.2449C24.6499 7.4099 24.6499 7.6049 24.5549 7.7699L15.5249 23.4149H22.7899C23.1649 23.4149 23.5099 23.2149 23.6999 22.8899L28.6449 14.3299L37.9349 30.4249Z" fill="#CCCCCC"/>
<path d="M57.225 6.34521L51.72 17.3452H54.225L55.975 13.8452H61.65L63.4 17.3452H65.905L60.4 6.34521H57.225ZM56.64 12.5102L58.81 8.17522L60.98 12.5102H56.64Z" fill="white"/>
<path d="M84.6251 17.3452V6.34521H81.9601L74.6151 14.5102V6.34521H72.1151V17.3452H74.7851L82.1251 9.17522V17.3452H84.6251Z" fill="white"/>
<path d="M103.48 6.34521H89.6351V7.76022H95.3051V17.3452H97.8101V7.76022H103.48V6.34521Z" fill="white"/>
<path d="M118.5 9.18022V17.3452H121V6.34521H118.33L110.99 14.5102V6.34521H108.49V17.3452H111.155L118.5 9.18022Z" fill="white"/>
<path d="M126.005 7.76022H131.68V17.3452H134.18V7.76022H139.85V6.34521H126.005V7.76022Z" fill="white"/>
<path d="M147.195 6.34521L141.69 17.3452H144.19L145.94 13.8452H151.615L153.365 17.3452H155.87L150.365 6.34521H147.195ZM146.61 12.5102L148.78 8.17522L150.95 12.5102H146.61Z" fill="white"/>
<path d="M169.22 6.34521V11.4302H162.71C162.21 11.4302 161.71 11.4302 161.71 10.8452V6.34521H159.21V10.5952C159.21 12.8452 161.21 12.8452 163.21 12.8452H169.22V17.3452H171.72V6.34521H169.22Z" fill="white"/>
<path d="M22.9899 4.545L7.13992 32C4.71492 32 1.89492 32 1.89492 32L0.984924 30.425L18.5549 0H20.3699L22.9899 4.545Z" fill="white"/>
<path fill-rule="evenodd" clip-rule="evenodd" d="M76.8751 6.34521V8.96022L79.4501 6.38522L76.8751 6.34521Z" fill="#FFCC00"/>
<path d="M25.4548 11.6653L19.4498 22.0753H17.8748L24.6698 10.3003L25.4548 11.6653Z" fill="#FFCC00"/>
<path d="M26.8998 14.16L22.4848 21.81C22.3898 21.97 22.2198 22.07 22.0298 22.07H21.0198L26.2398 13.02L26.8998 14.16Z" fill="#FFCC00"/>
</g>
<defs>
<clipPath id="clip0_2046_22894">
<rect width="171.015" height="32" fill="white" transform="translate(0.984924)"/>
</clipPath>
</defs>
</svg>
